<svg version="1.1" viewBox="0.0 0.0 100.0 100.0" fill="none" stroke="none" stroke-linecap="square" stroke-miterlimit="10" xmlns:xlink="http://www.w3.org/1999/xlink" xmlns="http://www.w3.org/2000/svg"><clipPath id="p.0"><path d="m0 0l100.0 0l0 100.0l-100.0 0l0 -100.0z" clip-rule="nonzero"/></clipPath><g clip-path="url(#p.0)"><path fill="#000000" fill-opacity="0.0" d="m0 0l100.0 0l0 100.0l-100.0 0z" fill-rule="evenodd"/><path fill="#000000" fill-opacity="0.0" d="m2.1746984 33.726234l61.477947 61.988564" fill-rule="evenodd"/><path stroke="#a5a5a5" stroke-width="3.0" stroke-miterlimit="800.0" stroke-linecap="butt" d="m2.1746984 33.726234l61.477947 61.988564" fill-rule="evenodd"/><path fill="#000000" fill-opacity="0.0" d="m4.67824 4.4775743l90.27659 92.21692" fill-rule="evenodd"/><path stroke="#a5a5a5" stroke-width="3.0" stroke-miterlimit="800.0" stroke-linecap="butt" d="m4.67824 4.4775743l90.27659 92.21692" fill-rule="evenodd"/><path fill="#000000" fill-opacity="0.0" d="m66.677864 96.35323l31.14746 -31.351707" fill-rule="evenodd"/><path stroke="#a5a5a5" stroke-width="3.0" stroke-miterlimit="800.0" stroke-linecap="butt" d="m66.677864 96.35323l31.14746 -31.351707" fill-rule="evenodd"/><path fill="#000000" fill-opacity="0.0" d="m3.9078932 95.965164l91.55312 -92.11479" fill-rule="evenodd"/><path stroke="#a5a5a5" stroke-width="3.0" stroke-miterlimit="800.0" stroke-linecap="butt" d="m3.9078932 95.965164l91.55312 -92.11479" fill-rule="evenodd"/><path fill="#000000" fill-opacity="0.0" d="m3.017382 3.495493l93.136024 0l0 93.136024l-93.136024 0z" fill-rule="evenodd"/><path stroke="#a5a5a5" stroke-width="3.0" stroke-miterlimit="800.0" stroke-linecap="butt" d="m3.017382 3.495493l93.136024 0l0 93.136024l-93.136024 0z" fill-rule="evenodd"/><path fill="#000000" fill-opacity="0.0" d="m2.3658383 64.90859l30.075174 30.330482" fill-rule="evenodd"/><path stroke="#a5a5a5" stroke-width="3.0" stroke-miterlimit="800.0" stroke-linecap="butt" d="m2.3658383 64.90859l30.075174 30.330482" fill-rule="evenodd"/><path fill="#000000" fill-opacity="0.0" d="m32.95605 2.7956111l61.63113 62.141743" fill-rule="evenodd"/><path stroke="#a5a5a5" stroke-width="3.0" stroke-miterlimit="800.0" stroke-linecap="butt" d="m32.95605 2.7956111l61.63113 62.141743" fill-rule="evenodd"/><path fill="#000000" fill-opacity="0.0" d="m64.46877 4.734413l31.04535 31.351711" fill-rule="evenodd"/><path stroke="#a5a5a5" stroke-width="3.0" stroke-miterlimit="800.0" stroke-linecap="butt" d="m64.46877 4.734413l31.04535 31.351711" fill-rule="evenodd"/><path fill="#000000" fill-opacity="0.0" d="m33.414753 97.20409l63.72465 -64.08208" fill-rule="evenodd"/><path stroke="#a5a5a5" stroke-width="3.0" stroke-miterlimit="800.0" stroke-linecap="butt" d="m33.414753 97.20409l63.72465 -64.08208" fill-rule="evenodd"/><path fill="#000000" fill-opacity="0.0" d="m2.9632568 63.836643l60.660965 -61.018394" fill-rule="evenodd"/><path stroke="#a5a5a5" stroke-width="3.0" stroke-miterlimit="800.0" stroke-linecap="butt" d="m2.9632568 63.836643l60.660965 -61.018394" fill-rule="evenodd"/><path fill="#000000" fill-opacity="0.0" d="m2.1746984 30.511578l26.909367 -27.113611" fill-rule="evenodd"/><path stroke="#a5a5a5" stroke-width="3.0" stroke-miterlimit="800.0" stroke-linecap="butt" d="m2.1746984 30.511578l26.909367 -27.113611" fill-rule="evenodd"/></g></svg>